PathFileType	4	(X/Y/Z)	C:/Users/opensim2020/Desktop/walking_exp_matlab/subject02_walking05_straight_01.trc	
DataRate	CameraRate	NumFrames	NumMarkers	Units	OrigDataRate	OrigDataStartFrame	OrigNumFrames	
100.00	100.00	4	42	mm	100.00	768	190	
Frame#	Time	LFHD			RFHD			LBHD			RBHD			C7			T10			CLAV			STRN			RBAK			LSHO			LUPA			LELB			LFRM			LWRA			LWRB			LFIN			RSHO			RUPA			RELB			RFRM			RWRA			RWRB			RFIN			LASI			RASI			LPSI			RPSI			LTHI			LKNE			LTIB			LANK			LHEE			LTOE			RTHI			RKNE			RTIB			RANK			RHEE			RTOE			*39			*40			*41			
		X1	Y1	Z1	X2	Y2	Z2	X3	Y3	Z3	X4	Y4	Z4	X5	Y5	Z5	X6	Y6	Z6	X7	Y7	Z7	X8	Y8	Z8	X9	Y9	Z9	X10	Y10	Z10	X11	Y11	Z11	X12	Y12	Z12	X13	Y13	Z13	X14	Y14	Z14	X15	Y15	Z15	X16	Y16	Z16	X17	Y17	Z17	X18	Y18	Z18	X19	Y19	Z19	X20	Y20	Z20	X21	Y21	Z21	X22	Y22	Z22	X23	Y23	Z23	X24	Y24	Z24	X25	Y25	Z25	X26	Y26	Z26	X27	Y27	Z27	X28	Y28	Z28	X29	Y29	Z29	X30	Y30	Z30	X31	Y31	Z31	X32	Y32	Z32	X33	Y33	Z33	X34	Y34	Z34	X35	Y35	Z35	X36	Y36	Z36	X37	Y37	Z37	X38	Y38	Z38	X39	Y39	Z39	X40	Y40	Z40	X41	Y41	Z41	X42	Y42	Z42	

119	1.180	-1069.34412	-50.66978	1748.12903	-930.43567	-70.51804	1715.37402	-1104.39221	-173.86191	1667.98706	-968.55023	-204.96942	1633.39185	-1039.98865	-237.05757	1526.25916	-1030.05371	-295.32510	1251.11829	-1054.09485	-100.15794	1454.83521	-1052.60913	-51.14376	1281.70728	-975.68445	-295.61423	1352.41187	-1221.82007	-165.32112	1504.98376	-1310.23730	-169.54637	1308.05310	-1330.46118	-156.01810	1165.53748	-1335.94067	-92.99805	1045.72803	-1292.30225	9.23815	960.36078	-1328.54932	-29.75146	939.92462	-1324.43921	16.59369	891.56604	-855.99701	-153.61398	1484.34668	-773.44037	-195.99745	1296.21399	-758.78436	-196.49466	1150.02002	-735.94189	-180.24142	1032.16223	-747.52863	-140.98009	901.57013	-720.40234	-191.73811	903.09485	-713.59424	-162.12804	836.83331	-1186.24719	-82.59116	983.22870	-931.52368	-43.15442	983.00061	-1071.99121	-276.46536	1027.95508	-957.68658	-265.32544	1033.99426	-1245.94543	-138.03859	672.86969	-1235.36450	-150.17770	489.27005	-1209.19153	-299.18292	382.25119	-1170.13208	-431.26538	206.89059	-1107.31116	-455.90112	198.88780	-1223.65222	-361.45831	77.71536	-856.09235	-79.08618	678.10004	-903.36261	-66.42864	468.94360	-898.08356	-97.61261	282.01010	-939.64587	-112.11053	90.81190	-994.55957	-148.33025	38.07433	-934.38068	42.45029	38.08376	-989.50696	-168.37596	1798.87732	-3357.17432	2845.89160	1033.85852			 
120	1.190	-1068.88879	-42.08348	1749.66833	-929.63611	-61.46964	1717.21509	-1103.59814	-165.07338	1669.06506	-967.36041	-195.62848	1634.43005	-1038.66113	-228.01199	1527.61328	-1028.01404	-286.52344	1252.67566	-1053.28723	-91.06625	1456.07532	-1051.98621	-42.34862	1282.89099	-973.51849	-286.47742	1354.24976	-1220.68689	-157.12119	1506.13367	-1308.63867	-163.00516	1308.83618	-1328.31494	-150.80219	1166.20679	-1334.01526	-90.06809	1045.63293	-1290.62378	10.54180	957.95563	-1327.20752	-28.47146	938.56494	-1322.84607	16.82244	889.07086	-855.10168	-143.75285	1486.01917	-771.86383	-184.63916	1297.53748	-756.87177	-183.48354	1151.61365	-734.48065	-166.40155	1033.73157	-746.41370	-125.81985	903.75885	-719.12091	-176.40565	904.46124	-712.21899	-145.42297	838.80286	-1185.73376	-74.45951	985.18323	-930.21027	-34.87859	984.31348	-1070.16504	-268.02008	1029.50049	-956.09344	-256.84152	1035.10193	-1245.36951	-124.02756	675.05975	-1235.20105	-132.60297	491.27005	-1207.49854	-279.56888	382.28098	-1168.19824	-408.52234	204.52194	-1105.41870	-433.02109	195.44223	-1222.66687	-334.73462	78.06929	-855.47357	-75.08634	678.17627	-902.45929	-65.00482	468.90771	-897.75397	-98.02419	282.27716	-939.83484	-111.98845	90.90437	-994.70355	-148.34242	38.11518	-934.30670	42.41096	38.02029	-989.19647	-159.98335	1800.24402	-3360.24756	2845.15405	1033.87366			 
121	1.200	-1068.53003	-33.59470	1751.09241	-929.20325	-52.69783	1718.86487	-1102.93750	-156.33170	1670.00598	-966.45935	-186.63284	1635.35095	-1037.59045	-219.02911	1528.73254	-1026.03955	-277.66629	1254.09668	-1052.58667	-82.06057	1457.22168	-1051.28613	-33.63517	1284.00745	-971.65625	-277.43869	1355.89026	-1219.81738	-148.72992	1507.19958	-1307.15039	-156.41057	1309.56689	-1326.31396	-145.89008	1166.79968	-1332.66516	-87.10812	1045.20935	-1289.39465	11.85329	955.72681	-1325.99609	-27.53457	937.11090	-1321.72058	16.67756	886.73431	-854.31104	-133.77596	1487.84692	-769.95447	-172.49858	1299.26978	-755.08557	-171.11078	1153.09143	-732.95068	-151.94373	1035.35388	-745.63892	-110.61789	905.96637	-717.75476	-160.61536	905.90234	-710.99640	-128.63428	841.03070	-1184.80469	-66.11153	987.17328	-928.74231	-26.81725	985.48779	-1068.69202	-259.63620	1030.73633	-954.72180	-248.41170	1036.03210	-1245.20032	-110.32176	677.53235	-1234.92590	-115.27386	493.23630	-1206.15491	-259.91666	381.73587	-1166.48010	-384.76364	200.90375	-1103.72498	-409.32361	191.00575	-1221.71350	-307.15945	77.63943	-855.00549	-71.71297	678.33221	-901.98163	-63.13915	468.87860	-897.39783	-97.79901	282.46564	-940.07123	-111.98522	90.89714	-994.88702	-148.46524	38.24825	-934.21332	42.34097	38.00348	-988.63348	-151.39409	1801.37830	-3360.31567	2845.19360	1033.92590			 
122	1.210	-1068.31604	-25.11702	1752.37891	-928.91473	-43.81338	1720.43848	-1102.33081	-147.70338	1670.61597	-966.14941	-177.81799	1636.30676	-1036.28394	-210.03149	1530.05200	-1024.19824	-268.82327	1255.46997	-1051.86011	-73.05424	1458.25647	-1050.53906	-25.00232	1284.97681	-969.87317	-268.55927	1357.49414	-1218.76062	-140.53880	1507.91016	-1305.68103	-149.86252	1310.19690	-1324.62537	-141.20212	1167.56787	-1331.66711	-84.51205	1044.91174	-1288.32239	12.74377	953.20959	-1324.96460	-26.99394	935.56122	-1320.73706	16.08140	884.13470	-853.41870	-123.73335	1489.35754	-768.43597	-161.18860	1300.79077	-753.22510	-158.42731	1154.49329	-731.65424	-137.95721	1036.98035	-744.72040	-94.31686	908.27209	-716.47546	-144.45172	907.38721	-709.92114	-111.40195	843.06775	-1183.49194	-56.76471	989.23419	-927.28705	-19.20930	986.53613	-1067.58899	-251.14297	1032.25879	-953.53632	-240.60789	1036.98718	-1245.03271	-96.92718	679.89441	-1234.56335	-98.24520	495.15091	-1205.19678	-240.27016	380.49933	-1165.04590	-360.73138	196.70634	-1102.34998	-384.99902	185.77074	-1221.00391	-278.88159	76.64431	-854.79388	-68.11639	678.26227	-901.41644	-61.09150	468.67807	-896.90802	-96.85344	282.58279	-940.04877	-111.95689	91.01157	-994.92639	-148.55104	38.28659	-934.12006	42.29031	38.00508	-988.47638	-143.08910	1802.32813	-3360.33813	2845.27490	1033.68762			 
